<?xml version="1.0" encoding="utf-8"?>
<!-- Generator: Adobe Illustrator 27.3.1, SVG Export Plug-In . SVG Version: 6.00 Build 0)  -->
<svg version="1.1" id="logo_scrum_manager_con_texto_xA0_Imagen_1_"
	 xmlns="http://www.w3.org/2000/svg" xmlns:xlink="http://www.w3.org/1999/xlink" x="0px" y="0px" viewBox="0 0 981.9 270.3"
	 style="enable-background:new 0 0 981.9 270.3;" xml:space="preserve">
<style type="text/css">
	.st0{fill:#8A9BB9;}
	.st1{fill:#526283;}
</style>
<g>
	<path class="st0" d="M115.1,83.8h144.5c-16.5-21.9-42.7-36.1-72.3-36.1S131.6,61.8,115.1,83.8z"/>
	<path class="st1" d="M38.9,119.9h177c-2.7-13.3-8.4-25.6-16.3-36.1H55.1C47.2,94.3,41.6,106.5,38.9,119.9z"/>
	<path class="st0" d="M97.1,138c0,6.2,0.6,12.2,1.8,18.1h177c1.2-5.8,1.8-11.9,1.8-18.1c0-6.2-0.6-12.2-1.8-18.1h-177
		C97.7,125.7,97.1,131.8,97.1,138z"/>
	<path class="st1" d="M55.1,192.2h144.5c7.9-10.5,13.5-22.8,16.3-36.1h-177C41.6,169.4,47.2,181.7,55.1,192.2z"/>
	<path class="st0" d="M259.7,192.2H115.1c16.5,21.9,42.7,36.1,72.3,36.1S243.2,214.1,259.7,192.2z"/>
</g>
<g>
	<g>
		<g>
			<path class="st1" d="M375,96.1h-12.1v-2.7c0-2.8-0.7-5.2-2-7.2s-3.5-3-6.6-3c-1.7,0-3,0.3-4,1c-1,0.6-1.9,1.4-2.5,2.4
				c-0.6,1-1.1,2.2-1.3,3.5c-0.2,1.3-0.4,2.7-0.4,4.1c0,1.7,0.1,3.1,0.2,4.2c0.1,1.1,0.4,2.1,0.9,3c0.5,0.9,1.2,1.6,2.1,2.3
				c0.9,0.6,2.2,1.3,3.7,1.9l9.3,3.7c2.7,1,4.9,2.2,6.5,3.6c1.7,1.4,3,3,3.9,4.8c0.9,1.9,1.5,4.1,1.8,6.5c0.3,2.4,0.5,5.2,0.5,8.3
				c0,3.6-0.4,6.9-1.1,9.9c-0.7,3.1-1.9,5.7-3.5,7.8c-1.7,2.2-3.8,4-6.5,5.2c-2.7,1.3-6,1.9-9.9,1.9c-2.9,0-5.7-0.5-8.2-1.5
				c-2.5-1-4.7-2.5-6.5-4.3c-1.8-1.8-3.3-3.9-4.3-6.4c-1.1-2.4-1.6-5.1-1.6-7.9v-4.5h12.1v3.8c0,2.2,0.7,4.2,2,6s3.5,2.7,6.6,2.7
				c2.1,0,3.7-0.3,4.8-0.9c1.1-0.6,2-1.4,2.7-2.6c0.6-1.1,1-2.4,1.1-4s0.2-3.3,0.2-5.2c0-2.2-0.1-4-0.2-5.5c-0.2-1.4-0.5-2.6-1-3.5
				c-0.6-0.9-1.3-1.6-2.2-2.1c-0.9-0.6-2.1-1.1-3.6-1.8l-8.7-3.6c-5.2-2.1-8.7-5-10.5-8.5c-1.8-3.5-2.7-8-2.7-13.3
				c0-3.2,0.4-6.2,1.3-9c0.9-2.9,2.2-5.3,3.9-7.4c1.7-2.1,3.8-3.7,6.4-4.9c2.6-1.2,5.7-1.8,9.2-1.8c3,0,5.8,0.6,8.3,1.7
				c2.5,1.1,4.7,2.6,6.5,4.4c3.6,3.8,5.5,8.2,5.5,13.1V96.1z"/>
			<path class="st1" d="M396.2,139c0,1.9,0.5,3.4,1.6,4.4c1.1,1,2.5,1.5,4.3,1.5c2.3,0,3.8-0.7,4.6-2c0.8-1.3,1.2-2.7,1.4-4h12.1
				c0,5.3-1.6,9.6-4.9,12.9c-1.6,1.7-3.5,3-5.7,3.9c-2.2,1-4.7,1.4-7.5,1.4c-3.8,0-7-0.8-9.7-2.4c-2.7-1.6-4.7-3.7-6.1-6.3
				c-0.9-1.6-1.5-3.4-1.8-5.5c-0.3-2.1-0.5-4.3-0.5-6.8v-19.9c0-2.5,0.2-4.7,0.5-6.8c0.3-2.1,0.9-3.9,1.8-5.5
				c1.4-2.6,3.5-4.7,6.1-6.3c2.7-1.6,5.9-2.4,9.7-2.4c2.8,0,5.3,0.5,7.6,1.4c2.3,1,4.2,2.3,5.8,3.9c3.2,3.6,4.8,8.2,4.8,13.9h-12.1
				c0-2.5-0.5-4.3-1.6-5.4c-1.1-1.1-2.5-1.7-4.3-1.7c-1.8,0-3.3,0.6-4.3,1.7c-1.1,1.2-1.6,2.9-1.6,5.2V139z"/>
			<path class="st1" d="M427.4,156.4V96.1h12.1v6.4c2.5-2.2,4.9-4,7.3-5.2c2.4-1.3,5.3-1.9,8.8-1.9v12.9c-1.2-0.5-2.4-0.7-3.7-0.7
				c-1.3,0-2.6,0.2-4.1,0.7c-1.5,0.4-2.8,1.2-4,2.2c-1.3,1-2.3,2.4-3.1,4c-0.8,1.7-1.2,3.7-1.2,6.2v35.8H427.4z"/>
			<path class="st1" d="M496.8,96.1v60.3h-12.1v-5.8h-0.2c-1.3,1.9-2.8,3.5-4.6,4.7c-1.8,1.2-4.1,1.8-6.8,1.8c-1.5,0-3-0.3-4.5-0.8
				c-1.5-0.5-2.9-1.4-4-2.6c-1.2-1.2-2.1-2.7-2.9-4.6c-0.7-1.9-1.1-4.1-1.1-6.8V96.1h12.1v41.8c0,2.2,0.5,4,1.5,5.2
				c1,1.3,2.5,1.9,4.4,1.9c2.3,0,3.9-0.7,4.8-2.1c0.9-1.4,1.3-3.5,1.3-6.2V96.1H496.8z"/>
			<path class="st1" d="M506.8,156.4V96.1h12.1v5.8h0.2c1.3-1.9,2.8-3.5,4.6-4.7c1.8-1.2,4.1-1.8,6.8-1.8c2.6,0,4.8,0.6,6.5,1.9
				c1.7,1.3,3.2,2.7,4.3,4.2c1.5-1.7,3.2-3.1,5-4.3c1.8-1.2,4.4-1.8,7.6-1.8c1.5,0,3.1,0.3,4.6,0.8c1.6,0.5,3,1.4,4.3,2.6
				c1.3,1.2,2.3,2.7,3.1,4.6c0.8,1.9,1.2,4.1,1.2,6.8v46.3h-12.1v-41.8c0-2.2-0.5-4-1.5-5.2c-1-1.3-2.5-1.9-4.4-1.9
				c-2.3,0-3.9,0.7-4.8,2.1c-0.9,1.4-1.3,3.5-1.3,6.2v40.6h-12.1v-41.8c0-2.2-0.5-4-1.5-5.2c-1-1.3-2.5-1.9-4.4-1.9
				c-2.3,0-3.9,0.7-4.8,2.1c-0.9,1.4-1.3,3.5-1.3,6.2v40.6H506.8z"/>
			<path class="st0" d="M604.8,156.4V71.7h11.7l15.6,44.9h0.2l15.5-44.9h11.8v84.7h-12.1v-51.5h-0.2l-12,36.4h-6.1l-11.9-36.4H617
				v51.5H604.8z"/>
			<path class="st0" d="M693.2,156.4v-6.2H693c-1.6,2.2-3.2,3.9-4.8,5.1c-1.6,1.2-3.9,1.8-6.8,1.8c-1.4,0-2.9-0.2-4.3-0.7
				c-1.5-0.4-2.9-1.2-4.2-2.4c-1.3-1.1-2.4-2.7-3.3-4.8c-0.8-2.1-1.2-4.8-1.2-8.2c0-3.4,0.3-6.4,0.8-9c0.6-2.6,1.6-4.7,3.1-6.5
				c1.4-1.7,3.4-2.9,5.8-3.7c2.5-0.8,5.6-1.2,9.4-1.2c0.4,0,0.8,0,1.3,0c0.5,0,0.9,0,1.3,0.1c0.4,0.1,0.9,0.1,1.4,0.1
				c0.6,0,1.1,0,1.8,0.1v-6.3c0-2.1-0.4-3.8-1.3-5.1c-0.9-1.3-2.5-2-4.8-2c-1.6,0-3,0.5-4.3,1.5c-1.3,1-2.2,2.5-2.6,4.5h-11.8
				c0.3-5.4,2.1-9.8,5.5-13.1c1.6-1.6,3.5-2.8,5.7-3.7c2.2-0.9,4.7-1.4,7.5-1.4c2.5,0,4.9,0.4,7.1,1.2c2.2,0.8,4.2,2,5.8,3.6
				c1.6,1.6,2.9,3.6,3.8,6s1.4,5.2,1.4,8.3v42H693.2z M693.2,130.5c-1.3-0.2-2.5-0.4-3.3-0.4c-2.6,0-4.9,0.6-6.7,1.8
				c-1.9,1.2-2.8,3.5-2.8,6.7c0,2.3,0.6,4.2,1.7,5.6c1.1,1.4,2.7,2.1,4.6,2.1c2.1,0,3.7-0.7,4.8-2c1.1-1.3,1.7-3.3,1.7-5.7V130.5z"
				/>
			<path class="st0" d="M716.7,156.4V96.1h12.1v5.8h0.2c1.3-1.9,2.8-3.5,4.6-4.7c1.8-1.2,4.1-1.8,6.8-1.8c1.5,0,3,0.3,4.5,0.8
				c1.5,0.5,2.9,1.4,4,2.6c1.2,1.2,2.1,2.7,2.9,4.6c0.7,1.9,1.1,4.1,1.1,6.8v46.3h-12.1v-41.8c0-2.2-0.5-4-1.5-5.2
				c-1-1.3-2.5-1.9-4.4-1.9c-2.3,0-3.9,0.7-4.8,2.1c-0.9,1.4-1.3,3.5-1.3,6.2v40.6H716.7z"/>
			<path class="st0" d="M785.9,156.4v-6.2h-0.2c-1.6,2.2-3.2,3.9-4.8,5.1c-1.6,1.2-3.9,1.8-6.8,1.8c-1.4,0-2.9-0.2-4.3-0.7
				c-1.5-0.4-2.9-1.2-4.2-2.4c-1.3-1.1-2.4-2.7-3.3-4.8c-0.8-2.1-1.2-4.8-1.2-8.2c0-3.4,0.3-6.4,0.8-9c0.6-2.6,1.6-4.7,3.1-6.5
				c1.4-1.7,3.4-2.9,5.8-3.7c2.5-0.8,5.6-1.2,9.4-1.2c0.4,0,0.8,0,1.3,0c0.5,0,0.9,0,1.3,0.1c0.4,0.1,0.9,0.1,1.4,0.1
				c0.6,0,1.1,0,1.8,0.1v-6.3c0-2.1-0.4-3.8-1.3-5.1c-0.9-1.3-2.5-2-4.8-2c-1.6,0-3,0.5-4.3,1.5c-1.3,1-2.2,2.5-2.6,4.5h-11.8
				c0.3-5.4,2.1-9.8,5.5-13.1c1.6-1.6,3.5-2.8,5.7-3.7c2.2-0.9,4.7-1.4,7.5-1.4c2.5,0,4.9,0.4,7.1,1.2c2.2,0.8,4.2,2,5.8,3.6
				c1.6,1.6,2.9,3.6,3.8,6s1.4,5.2,1.4,8.3v42H785.9z M785.9,130.5c-1.3-0.2-2.5-0.4-3.3-0.4c-2.6,0-4.9,0.6-6.7,1.8
				c-1.9,1.2-2.8,3.5-2.8,6.7c0,2.3,0.6,4.2,1.7,5.6c1.1,1.4,2.7,2.1,4.6,2.1c2.1,0,3.7-0.7,4.8-2c1.1-1.3,1.7-3.3,1.7-5.7V130.5z"
				/>
			<path class="st0" d="M819.1,163.4c0.1,1.4,0.7,2.8,1.7,4c1.1,1.3,2.6,1.9,4.7,1.9c2,0,3.4-0.6,4.3-1.8c0.9-1.2,1.3-2.8,1.3-4.7
				v-11.9h-0.2c-1.3,2-3,3.5-4.8,4.6c-1.9,1.1-4,1.6-6.5,1.6c-5.1,0-8.6-1.9-10.6-5.7c-0.7-1.3-1.2-3-1.5-5c-0.3-2-0.5-4.6-0.5-8
				v-23c0-4.4,0.1-7.6,0.4-9.6c0.5-4,2.3-6.9,5.6-8.9c1.5-1,3.8-1.5,6.8-1.5c1.5,0,2.8,0.2,3.9,0.5c1.1,0.3,2,0.8,2.9,1.3
				c0.9,0.6,1.7,1.2,2.4,2c0.7,0.8,1.5,1.6,2.3,2.4v-5.5h12.1v67.7c0,2.1-0.3,4.1-1,6.2c-0.7,2.1-1.8,4-3.3,5.7
				c-1.5,1.7-3.4,3.2-5.7,4.2c-2.3,1.1-5,1.6-8.2,1.6c-1.8,0-3.7-0.3-5.7-0.9c-2-0.6-3.8-1.6-5.5-3c-1.7-1.3-3.2-3.2-4.5-5.4
				c-1.2-2.3-2-5.2-2.4-8.7H819.1z M819.1,137.9c0,1.9,0.4,3.6,1.2,5c0.8,1.4,2.4,2.1,4.7,2.1c1.7,0,3.2-0.6,4.3-1.8
				c1.1-1.2,1.7-2.8,1.7-4.7V115c0-2.2-0.6-4-1.7-5.4c-1.1-1.4-2.6-2.1-4.4-2.1c-2.1,0-3.6,0.8-4.5,2.3c-1,1.5-1.4,3.5-1.4,5.9
				V137.9z"/>
			<path class="st0" d="M888.4,130.8h-24v8.2c0,1.9,0.5,3.4,1.6,4.4c1.1,1,2.5,1.5,4.3,1.5c2.3,0,3.8-0.7,4.6-2
				c0.8-1.3,1.2-2.7,1.4-4h12.1c0,5.3-1.6,9.6-4.9,12.9c-1.6,1.7-3.5,3-5.7,3.9c-2.2,1-4.7,1.4-7.5,1.4c-3.8,0-7-0.8-9.7-2.4
				c-2.7-1.6-4.7-3.7-6.1-6.3c-0.9-1.6-1.5-3.4-1.8-5.5c-0.3-2.1-0.5-4.3-0.5-6.8v-19.9c0-2.5,0.2-4.7,0.5-6.8
				c0.3-2.1,0.9-3.9,1.8-5.5c1.4-2.6,3.5-4.7,6.1-6.3c2.7-1.6,5.9-2.4,9.7-2.4c2.8,0,5.3,0.5,7.6,1.4c2.3,1,4.2,2.3,5.8,3.9
				c3.2,3.6,4.8,8.1,4.8,13.4V130.8z M864.4,121.3h11.9v-6.9c0-2.3-0.5-4-1.6-5.2c-1.1-1.1-2.5-1.7-4.3-1.7c-1.8,0-3.3,0.6-4.3,1.7
				c-1.1,1.2-1.6,2.9-1.6,5.2V121.3z"/>
			<path class="st0" d="M897.3,156.4V96.1h12.1v6.4c2.5-2.2,4.9-4,7.3-5.2c2.4-1.3,5.3-1.9,8.8-1.9v12.9c-1.2-0.5-2.4-0.7-3.7-0.7
				c-1.3,0-2.6,0.2-4.1,0.7c-1.5,0.4-2.8,1.2-4,2.2c-1.3,1-2.3,2.4-3.1,4c-0.8,1.7-1.2,3.7-1.2,6.2v35.8H897.3z"/>
		</g>
		<g>
			<path class="st1" d="M943.1,57.8c0,7.1-5.6,12.7-12.9,12.7c-7.2,0-13-5.6-13-12.7c0-7,5.7-12.6,13-12.6
				C937.5,45.3,943.1,50.9,943.1,57.8z M920.4,57.8c0,5.6,4.1,10,9.8,10c5.5,0,9.6-4.4,9.6-10c0-5.6-4.1-10.1-9.7-10.1
				C924.6,47.8,920.4,52.3,920.4,57.8z M928.2,64.4h-2.9V51.9c1.1-0.2,2.8-0.4,4.8-0.4c2.4,0,3.4,0.4,4.4,0.9
				c0.7,0.5,1.2,1.5,1.2,2.8c0,1.4-1.1,2.5-2.6,2.9v0.2c1.2,0.5,1.9,1.4,2.3,3.1c0.4,1.9,0.6,2.7,0.9,3.1h-3.1
				c-0.4-0.5-0.6-1.6-1-3.1c-0.2-1.4-1-2-2.6-2h-1.4V64.4z M928.3,57.3h1.4c1.6,0,2.9-0.5,2.9-1.8c0-1.1-0.8-1.9-2.7-1.9
				c-0.8,0-1.3,0.1-1.6,0.2V57.3z"/>
		</g>
	</g>
	<g>
		<path class="st1" d="M360.8,171.2v21.2c0,3.4-1.1,6-3.3,7.8s-5.1,2.7-8.7,2.7c-3.4,0-6.2-0.9-8.4-2.7c-2.1-1.8-3.2-4.4-3.2-7.8
			v-21.2h4.2v21.2c0,2.4,0.7,4.2,2,5.4c1.3,1.2,3.1,1.8,5.3,1.8c2.3,0,4.2-0.6,5.6-1.8c1.4-1.2,2.1-3,2.1-5.4v-21.2H360.8z"/>
		<path class="st1" d="M370.7,179.2l0.3,3.5c0.8-1.2,1.7-2.2,2.9-2.9c1.2-0.7,2.5-1,4-1c2.5,0,4.4,0.7,5.8,2.2
			c1.4,1.5,2.1,3.7,2.1,6.8v14.7h-4.2v-14.6c0-2-0.4-3.5-1.2-4.4c-0.8-0.9-2-1.3-3.7-1.3c-1.2,0-2.3,0.3-3.2,0.9
			c-0.9,0.6-1.7,1.4-2.2,2.4v17h-4.2v-23.2H370.7z"/>
		<path class="st1" d="M401.4,199.6c1.4,0,2.6-0.4,3.7-1.3c1.1-0.9,1.6-1.9,1.6-3.2h3.8l0,0.1c0.1,2-0.8,3.8-2.7,5.3
			c-1.9,1.6-4,2.3-6.5,2.3c-3.4,0-6-1.1-7.8-3.3c-1.8-2.2-2.7-5-2.7-8.3v-0.9c0-3.3,0.9-6.1,2.7-8.3c1.8-2.2,4.4-3.3,7.7-3.3
			c2.7,0,4.9,0.8,6.7,2.4c1.7,1.6,2.6,3.6,2.5,5.9l0,0.1h-3.8c0-1.4-0.5-2.6-1.5-3.6c-1-1-2.3-1.5-3.8-1.5c-2.2,0-3.8,0.8-4.8,2.4
			c-1,1.6-1.4,3.6-1.4,5.9v0.9c0,2.4,0.5,4.4,1.4,5.9S399.1,199.6,401.4,199.6z"/>
		<path class="st1" d="M414.3,190.6c0-3.4,0.9-6.3,2.8-8.5c1.9-2.2,4.4-3.3,7.6-3.3c3.2,0,5.8,1.1,7.6,3.3c1.9,2.2,2.8,5.1,2.8,8.5
			v0.5c0,3.5-0.9,6.3-2.8,8.5c-1.9,2.2-4.4,3.3-7.6,3.3c-3.2,0-5.7-1.1-7.6-3.3s-2.8-5-2.8-8.5V190.6z M418.5,191.1
			c0,2.5,0.5,4.5,1.6,6.1c1,1.6,2.6,2.4,4.6,2.4c2,0,3.6-0.8,4.6-2.4c1-1.6,1.6-3.6,1.6-6.1v-0.5c0-2.4-0.5-4.5-1.6-6.1
			s-2.6-2.4-4.6-2.4c-2,0-3.5,0.8-4.6,2.4c-1,1.6-1.6,3.6-1.6,6.1V191.1z"/>
		<path class="st1" d="M447.7,195.6l0.4,1.6h0.1l0.4-1.6l5.3-16.4h4.3l-8.6,23.2h-3.2l-8.7-23.2h4.3L447.7,195.6z"/>
		<path class="st1" d="M471.5,202.9c-3.2,0-5.8-1.1-7.7-3.2c-1.9-2.2-2.9-5-2.9-8.4v-0.9c0-3.3,1-6.1,3-8.3c2-2.2,4.3-3.3,7-3.3
			c3.1,0,5.5,0.9,7.1,2.8c1.6,1.9,2.4,4.4,2.4,7.6v2.6h-15.1l-0.1,0.1c0,2.2,0.6,4.1,1.7,5.5c1.1,1.4,2.6,2.2,4.6,2.2
			c1.4,0,2.7-0.2,3.8-0.6c1.1-0.4,2-1,2.8-1.7l1.7,2.8c-0.8,0.8-1.9,1.5-3.3,2.1C475,202.6,473.4,202.9,471.5,202.9z M470.8,182.1
			c-1.4,0-2.6,0.6-3.6,1.8c-1,1.2-1.6,2.7-1.8,4.5l0,0.1h10.7v-0.6c0-1.7-0.4-3-1.3-4.2C473.9,182.7,472.6,182.1,470.8,182.1z"/>
		<path class="st1" d="M496.1,183l-2.2-0.1c-1.1,0-2.1,0.3-2.8,0.8c-0.8,0.5-1.4,1.3-1.8,2.2v16.6h-4.2v-23.2h3.8l0.4,3.4
			c0.7-1.2,1.5-2.1,2.4-2.8c1-0.7,2.1-1,3.3-1c0.3,0,0.6,0,0.9,0.1c0.3,0.1,0.5,0.1,0.7,0.2L496.1,183z"/>
		<path class="st1" d="M504.7,173.3h-4.2V169h4.2V173.3z M504.7,202.5h-4.2v-23.2h4.2V202.5z"/>
		<path class="st1" d="M515,179.2l0.3,3.5c0.8-1.2,1.7-2.2,2.9-2.9c1.2-0.7,2.5-1,4-1c2.5,0,4.4,0.7,5.8,2.2
			c1.4,1.5,2.1,3.7,2.1,6.8v14.7h-4.2v-14.6c0-2-0.4-3.5-1.2-4.4c-0.8-0.9-2-1.3-3.7-1.3c-1.2,0-2.3,0.3-3.2,0.9
			c-0.9,0.6-1.7,1.4-2.2,2.4v17h-4.2v-23.2H515z"/>
		<path class="st1" d="M535.3,191.3c0-3.7,0.8-6.8,2.4-9c1.6-2.3,3.9-3.4,6.8-3.4c1.5,0,2.8,0.3,3.9,0.9c1.1,0.6,2,1.5,2.8,2.6
			l0.5-3h3.4v23.4c0,3-0.9,5.3-2.6,6.9c-1.7,1.6-4.2,2.4-7.5,2.4c-1.1,0-2.3-0.2-3.6-0.5c-1.3-0.3-2.4-0.7-3.4-1.3l1.1-3.3
			c0.8,0.4,1.7,0.8,2.8,1c1.1,0.3,2.1,0.4,3.2,0.4c2.1,0,3.6-0.5,4.5-1.4c0.9-0.9,1.4-2.4,1.4-4.3V200c-0.8,1-1.7,1.7-2.7,2.2
			c-1.1,0.5-2.3,0.7-3.7,0.7c-2.9,0-5.1-1-6.7-3.1s-2.4-4.8-2.4-8.1V191.3z M539.6,191.7c0,2.3,0.5,4.2,1.5,5.6s2.5,2.1,4.5,2.1
			c1.3,0,2.3-0.3,3.2-0.9s1.6-1.4,2.1-2.5v-10.7c-0.5-1-1.3-1.8-2.1-2.4c-0.9-0.6-1.9-0.9-3.2-0.9c-2,0-3.5,0.8-4.5,2.5
			c-1,1.7-1.5,3.9-1.5,6.5V191.7z"/>
		<path class="st1" d="M592,191.7c0,3.4-0.8,6.1-2.4,8.1c-1.6,2.1-3.8,3.1-6.6,3.1c-1.5,0-2.9-0.3-4-0.9c-1.1-0.6-2.1-1.5-2.8-2.6
			l-0.5,3.1h-3.5V169h4.2v13c0.7-1,1.6-1.8,2.7-2.4c1.1-0.5,2.3-0.8,3.8-0.8c2.9,0,5.1,1.1,6.7,3.4c1.6,2.3,2.4,5.3,2.4,9V191.7z
			 M587.8,191.3c0-2.7-0.5-4.8-1.5-6.5c-1-1.7-2.5-2.5-4.5-2.5c-1.3,0-2.4,0.3-3.3,1c-0.9,0.6-1.6,1.5-2.1,2.6v10.1
			c0.5,1.1,1.3,2,2.1,2.7s2,1,3.3,1c2,0,3.5-0.7,4.4-2.1c1-1.4,1.5-3.3,1.5-5.6V191.3z"/>
		<path class="st1" d="M606.8,202.9c-3.2,0-5.8-1.1-7.7-3.2c-1.9-2.2-2.9-5-2.9-8.4v-0.9c0-3.3,1-6.1,3-8.3c2-2.2,4.3-3.3,7-3.3
			c3.1,0,5.5,0.9,7.1,2.8c1.6,1.9,2.4,4.4,2.4,7.6v2.6h-15.1l-0.1,0.1c0,2.2,0.6,4.1,1.7,5.5c1.1,1.4,2.6,2.2,4.6,2.2
			c1.4,0,2.7-0.2,3.8-0.6c1.1-0.4,2-1,2.8-1.7l1.7,2.8c-0.8,0.8-1.9,1.5-3.3,2.1C610.4,202.6,608.8,202.9,606.8,202.9z M606.2,182.1
			c-1.4,0-2.6,0.6-3.6,1.8c-1,1.2-1.6,2.7-1.8,4.5l0,0.1h10.7v-0.6c0-1.7-0.4-3-1.3-4.2C609.3,182.7,607.9,182.1,606.2,182.1z"/>
		<path class="st1" d="M626.1,173.6v5.6h4.4v3.1h-4.4v14.1c0,1.1,0.2,1.9,0.7,2.3c0.5,0.4,1,0.7,1.8,0.7c0.2,0,0.5,0,0.8-0.1
			c0.3-0.1,0.6-0.1,0.8-0.2l0.6,2.9c-0.3,0.3-0.8,0.5-1.4,0.6c-0.6,0.2-1.2,0.2-1.8,0.2c-1.7,0-3.1-0.5-4.1-1.6
			c-1-1-1.5-2.7-1.5-4.9v-14.1h-3.7v-3.1h3.7v-5.6H626.1z"/>
		<path class="st1" d="M641.3,173.6v5.6h4.4v3.1h-4.4v14.1c0,1.1,0.2,1.9,0.7,2.3c0.5,0.4,1,0.7,1.8,0.7c0.2,0,0.5,0,0.8-0.1
			c0.3-0.1,0.6-0.1,0.8-0.2l0.6,2.9c-0.3,0.3-0.8,0.5-1.4,0.6c-0.6,0.2-1.2,0.2-1.8,0.2c-1.7,0-3.1-0.5-4.1-1.6
			c-1-1-1.5-2.7-1.5-4.9v-14.1h-3.7v-3.1h3.7v-5.6H641.3z"/>
		<path class="st1" d="M660.5,202.9c-3.2,0-5.8-1.1-7.7-3.2c-1.9-2.2-2.9-5-2.9-8.4v-0.9c0-3.3,1-6.1,3-8.3c2-2.2,4.3-3.3,7-3.3
			c3.1,0,5.5,0.9,7.1,2.8c1.6,1.9,2.4,4.4,2.4,7.6v2.6h-15.1l-0.1,0.1c0,2.2,0.6,4.1,1.7,5.5c1.1,1.4,2.6,2.2,4.6,2.2
			c1.4,0,2.7-0.2,3.8-0.6c1.1-0.4,2-1,2.8-1.7l1.7,2.8c-0.8,0.8-1.9,1.5-3.3,2.1C664.1,202.6,662.5,202.9,660.5,202.9z M659.9,182.1
			c-1.4,0-2.6,0.6-3.6,1.8c-1,1.2-1.6,2.7-1.8,4.5l0,0.1h10.7v-0.6c0-1.7-0.4-3-1.3-4.2C663,182.7,661.6,182.1,659.9,182.1z"/>
		<path class="st1" d="M685.2,183l-2.2-0.1c-1.1,0-2.1,0.3-2.8,0.8c-0.8,0.5-1.4,1.3-1.8,2.2v16.6h-4.2v-23.2h3.8l0.4,3.4
			c0.7-1.2,1.5-2.1,2.4-2.8c1-0.7,2.1-1,3.3-1c0.3,0,0.6,0,0.9,0.1c0.3,0.1,0.5,0.1,0.7,0.2L685.2,183z"/>
		<path class="st1" d="M706.1,194l0.5,2.8h0.1l0.6-2.8l4.6-14.8h3.4L720,194l0.7,3.1h0.1l0.6-3.1l3.7-14.8h4.2l-6.7,23.2h-3.4
			l-4.5-14.2l-1-4l-0.1,0l-0.9,3.9l-4.4,14.2h-3.4l-6.7-23.2h4.2L706.1,194z"/>
		<path class="st1" d="M747.8,202.5c-0.1-0.7-0.3-1.3-0.3-1.9c-0.1-0.5-0.1-1.1-0.1-1.6c-0.8,1.1-1.8,2.1-3.1,2.8s-2.6,1.1-4.1,1.1
			c-2.4,0-4.3-0.6-5.5-1.9c-1.3-1.2-1.9-2.9-1.9-5.1c0-2.2,0.9-4,2.7-5.2c1.8-1.3,4.2-1.9,7.3-1.9h4.6v-2.3c0-1.4-0.4-2.4-1.2-3.2
			c-0.8-0.8-2-1.2-3.5-1.2c-1.4,0-2.5,0.3-3.3,1c-0.9,0.7-1.3,1.5-1.3,2.5h-4l0-0.1c-0.1-1.7,0.7-3.2,2.4-4.6
			c1.7-1.4,3.9-2.1,6.5-2.1c2.6,0,4.8,0.7,6.4,2c1.6,1.3,2.4,3.3,2.4,5.8v11.2c0,0.8,0,1.6,0.1,2.4s0.2,1.5,0.5,2.3H747.8z
			 M740.7,199.4c1.5,0,2.9-0.4,4.1-1.2c1.2-0.8,2-1.7,2.4-2.7v-3.8h-4.7c-1.7,0-3.1,0.4-4.1,1.3c-1,0.9-1.5,1.9-1.5,3
			c0,1,0.3,1.8,1,2.4C738.5,199.1,739.5,199.4,740.7,199.4z"/>
		<path class="st1" d="M764.5,193.9l0.8,2.9h0.1l5.7-17.6h4.7L766,206c-0.6,1.6-1.4,2.9-2.5,4.1s-2.6,1.7-4.4,1.7
			c-0.3,0-0.8,0-1.3-0.1c-0.5-0.1-0.9-0.2-1.2-0.2l0.4-3.3c-0.1,0,0.2,0,0.8,0c0.6,0,1,0.1,1.1,0.1c0.9,0,1.6-0.4,2.2-1.2
			c0.6-0.8,1.1-1.7,1.4-2.7l1-2.4l-8.6-22.8h4.7L764.5,193.9z"/>
		<path class="st1" d="M793,196.3c0-0.9-0.4-1.7-1.1-2.3s-2.1-1.1-4-1.6c-2.8-0.6-4.9-1.4-6.4-2.5c-1.4-1.1-2.1-2.5-2.1-4.3
			c0-1.9,0.8-3.5,2.4-4.8c1.6-1.3,3.7-2,6.3-2c2.7,0,4.9,0.7,6.5,2.1c1.6,1.4,2.4,3.1,2.3,5.1l0,0.1h-4c0-1-0.4-1.9-1.3-2.7
			c-0.9-0.8-2-1.2-3.4-1.2c-1.5,0-2.6,0.3-3.4,1c-0.7,0.7-1.1,1.5-1.1,2.4c0,0.9,0.3,1.6,1,2.2c0.6,0.5,2,1,3.9,1.4
			c2.9,0.6,5.1,1.5,6.6,2.6c1.4,1.1,2.1,2.5,2.1,4.4c0,2.1-0.8,3.7-2.5,5c-1.7,1.3-3.8,1.9-6.5,1.9c-3,0-5.3-0.8-7-2.3
			c-1.7-1.5-2.5-3.3-2.4-5.3l0-0.1h4c0.1,1.5,0.6,2.6,1.7,3.3c1,0.7,2.3,1,3.7,1c1.5,0,2.7-0.3,3.5-0.9
			C792.6,198.1,793,197.3,793,196.3z"/>
	</g>
</g>
</svg>
